<svg xmlns="http://www.w3.org/2000/svg" xmlns:sketchjs="https://sketch.io/dtd/" id="Layer_1" version="1.1" viewBox="0 0 482.21 74.5">
  <defs>
    <style>
      .st8{fill:#145aff}
    </style>
  </defs>
  <g sketchjs:tool="clipart">
    <path d="M23.9 31.5V4.4C15.2 8.1 8.3 15.2 4.8 24l19.1 19.2V31.5Z" style="fill:#afe164"/>
    <path sketchjs:uid="1" d="m32.1 23.2 19-19.1C47 2.4 42.5 1.5 37.8 1.5s-9.7 1-14 2.9v27.1l8.2-8.2.1-.1Z" style="fill:#d7e664"/>
    <path sketchjs:uid="2" d="M70.6 23.2h-27l8.2 8.2 19.1 19.2c1.7-4.1 2.6-8.6 2.6-13.3s-1-9.7-2.9-14v-.1Z" style="fill:#ffaa64"/>
    <path sketchjs:uid="3" d="M51.8 43.1v27.1c8.7-3.7 15.6-10.8 19.1-19.6L51.8 31.4v11.7Z" style="fill:#ff6469"/>
    <path sketchjs:uid="4" d="M43.7 51.3 24.6 70.5c4.1 1.7 8.6 2.6 13.3 2.6s9.7-1 14-2.9V43.1l-8.2 8.2Z" style="fill:#c3b4fa"/>
    <path sketchjs:uid="5" d="M32.1 51.3h-27C8.8 60 15.8 66.9 24.6 70.5l19.1-19.2H32.1Z" style="fill:#7dd2f0"/>
    <path sketchjs:uid="6" d="m23.9 43.1-19-19.2C3.2 28 2.3 32.5 2.3 37.2s1 9.7 2.9 14h27L24 43l-.1.1Z" style="fill:#7de6c3"/>
    <path sketchjs:uid="7" d="M43.7 23.2h27C67 14.5 60 7.6 51.2 4L32.1 23.2h11.6Z" style="fill:#ffe669"/>
  </g>
  <path d="M95.09 58V14.6h17.86c2.73 0 5.14.55 7.22 1.64 2.09 1.1 3.72 2.63 4.9 4.62 1.18 1.98 1.77 4.34 1.77 7.07v.87c0 2.69-.61 5.03-1.83 7.04-1.22 2-2.87 3.56-4.96 4.65-2.09 1.1-4.45 1.64-7.1 1.64h-9.67V58h-8.19Zm8.19-23.31h8.87c1.94 0 3.51-.54 4.71-1.61s1.8-2.54 1.8-4.4v-.62c0-1.86-.6-3.33-1.8-4.4-1.2-1.07-2.77-1.61-4.71-1.61h-8.87V34.7ZM131.73 58V14.6h7.81v16.43h1.12c.33-.66.85-1.32 1.55-1.98s1.64-1.21 2.82-1.64c1.18-.43 2.68-.65 4.49-.65 2.4 0 4.5.55 6.29 1.64 1.8 1.1 3.19 2.6 4.19 4.53.99 1.92 1.49 4.17 1.49 6.73v18.35h-7.81V40.28c0-2.31-.57-4.05-1.71-5.21s-2.76-1.74-4.87-1.74c-2.4 0-4.26.8-5.58 2.39s-1.98 3.81-1.98 6.67v15.62h-7.81ZM182.23 58.87c-3.06 0-5.81-.62-8.25-1.86s-4.36-3.04-5.77-5.39c-1.41-2.36-2.11-5.19-2.11-8.49v-.99c0-3.31.7-6.14 2.11-8.49 1.4-2.36 3.33-4.15 5.77-5.39s5.19-1.86 8.25-1.86 5.81.62 8.25 1.86 4.36 3.04 5.77 5.39c1.4 2.36 2.11 5.19 2.11 8.49v.99c0 3.31-.7 6.14-2.11 8.49-1.41 2.36-3.33 4.15-5.77 5.39-2.44 1.24-5.19 1.86-8.25 1.86Zm0-6.95c2.4 0 4.38-.77 5.95-2.33 1.57-1.55 2.36-3.77 2.36-6.67v-.62c0-2.89-.77-5.12-2.32-6.67-1.55-1.55-3.54-2.33-5.98-2.33s-4.38.77-5.95 2.33c-1.57 1.55-2.36 3.77-2.36 6.67v.62c0 2.89.78 5.12 2.36 6.67 1.57 1.55 3.55 2.33 5.95 2.33ZM214.54 58c-2.03 0-3.67-.63-4.93-1.89s-1.89-2.95-1.89-5.05V33.7h-7.69v-6.45h7.69V17.7h7.81v9.55h8.43v6.45h-8.43v16c0 1.24.58 1.86 1.74 1.86h5.95v6.45h-8.68ZM243.86 58.87c-3.06 0-5.81-.62-8.25-1.86s-4.36-3.04-5.77-5.39c-1.41-2.36-2.11-5.19-2.11-8.49v-.99c0-3.31.7-6.14 2.11-8.49 1.4-2.36 3.33-4.15 5.77-5.39s5.19-1.86 8.25-1.86 5.81.62 8.25 1.86 4.36 3.04 5.77 5.39c1.4 2.36 2.11 5.19 2.11 8.49v.99c0 3.31-.7 6.14-2.11 8.49-1.41 2.36-3.33 4.15-5.77 5.39-2.44 1.24-5.19 1.86-8.25 1.86Zm0-6.95c2.4 0 4.38-.77 5.95-2.33 1.57-1.55 2.36-3.77 2.36-6.67v-.62c0-2.89-.78-5.12-2.33-6.67-1.55-1.55-3.54-2.33-5.98-2.33s-4.38.77-5.95 2.33c-1.57 1.55-2.36 3.77-2.36 6.67v.62c0 2.89.78 5.12 2.36 6.67 1.57 1.55 3.55 2.33 5.95 2.33ZM296.99 58.87c-5.37 0-9.63-1.5-12.77-4.5-3.14-3-4.71-7.29-4.71-12.87V31.08c0-5.58 1.57-9.87 4.71-12.86 3.14-3 7.4-4.5 12.77-4.5s9.46 1.46 12.37 4.37c2.91 2.91 4.37 6.91 4.37 12v.37h-8.06v-.62c0-2.56-.71-4.67-2.14-6.32-1.43-1.65-3.61-2.48-6.54-2.48s-5.17.89-6.82 2.67-2.48 4.2-2.48 7.25v10.66c0 3.02.83 5.42 2.48 7.22 1.65 1.8 3.93 2.7 6.82 2.7s5.12-.84 6.54-2.51 2.14-3.77 2.14-6.29v-1.12h8.06v.87c0 5.08-1.46 9.08-4.37 12s-7.04 4.37-12.37 4.37ZM334.56 58.87c-3.06 0-5.81-.62-8.25-1.86s-4.36-3.04-5.77-5.39c-1.41-2.36-2.11-5.19-2.11-8.49v-.99c0-3.31.7-6.14 2.11-8.49 1.4-2.36 3.33-4.15 5.77-5.39s5.19-1.86 8.25-1.86 5.81.62 8.25 1.86 4.36 3.04 5.77 5.39c1.4 2.36 2.11 5.19 2.11 8.49v.99c0 3.31-.7 6.14-2.11 8.49-1.41 2.36-3.33 4.15-5.77 5.39-2.44 1.24-5.19 1.86-8.25 1.86Zm0-6.95c2.4 0 4.38-.77 5.95-2.33 1.57-1.55 2.36-3.77 2.36-6.67v-.62c0-2.89-.78-5.12-2.33-6.67-1.55-1.55-3.54-2.33-5.98-2.33s-4.38.77-5.95 2.33c-1.57 1.55-2.36 3.77-2.36 6.67v.62c0 2.89.78 5.12 2.36 6.67 1.57 1.55 3.55 2.33 5.95 2.33ZM357.48 58V14.6h7.81V58h-7.81ZM373.45 58V14.6h7.81V58h-7.81ZM403.56 58.87c-3.06 0-5.76-.65-8.09-1.95s-4.15-3.14-5.46-5.52c-1.3-2.38-1.95-5.18-1.95-8.4v-.74c0-3.22.64-6.02 1.92-8.4 1.28-2.38 3.08-4.22 5.39-5.52 2.31-1.3 5-1.95 8.06-1.95s5.64.67 7.87 2.02c2.23 1.34 3.97 3.2 5.21 5.58 1.24 2.38 1.86 5.14 1.86 8.28v2.67h-22.38c.08 2.11.87 3.82 2.36 5.15 1.49 1.32 3.31 1.98 5.46 1.98s3.8-.47 4.84-1.43c1.03-.95 1.82-2 2.36-3.16l6.39 3.35c-.58 1.08-1.42 2.24-2.51 3.5-1.1 1.26-2.55 2.34-4.37 3.22-1.82.89-4.13 1.33-6.94 1.33h-.02Zm-7.5-19.78h14.38c-.17-1.78-.88-3.2-2.14-4.28-1.26-1.07-2.9-1.61-4.93-1.61s-3.78.54-5.02 1.61c-1.24 1.08-2 2.5-2.29 4.28ZM438.87 58.87c-2.98 0-5.67-.62-8.09-1.86s-4.33-3.04-5.74-5.39c-1.41-2.36-2.11-5.21-2.11-8.56v-.87c0-3.35.7-6.2 2.11-8.56 1.4-2.36 3.32-4.15 5.74-5.39s5.11-1.86 8.09-1.86 5.46.52 7.56 1.55c2.11 1.03 3.81 2.45 5.12 4.25s2.16 3.83 2.57 6.11l-7.56 1.61c-.17-1.24-.54-2.36-1.12-3.35-.58-.99-1.4-1.78-2.45-2.36s-2.37-.87-3.94-.87-2.99.34-4.25 1.02-2.25 1.7-2.98 3.04c-.72 1.34-1.08 2.99-1.08 4.93v.62c0 1.94.36 3.59 1.08 4.93s1.71 2.36 2.98 3.04c1.26.68 2.68 1.02 4.25 1.02 2.36 0 4.14-.61 5.36-1.83s1.99-2.82 2.33-4.8l7.56 1.8c-.54 2.19-1.46 4.19-2.76 5.98s-3.01 3.21-5.12 4.25c-2.11 1.03-4.63 1.55-7.56 1.55h.01ZM470.91 58c-2.03 0-3.67-.63-4.93-1.89-1.26-1.26-1.89-2.95-1.89-5.05V33.7h-7.69v-6.45h7.69V17.7h7.81v9.55h8.43v6.45h-8.43v16c0 1.24.58 1.86 1.74 1.86h5.95v6.45h-8.68Z" class="st8"/>
</svg>
